# This file uses centimeters as units for non-parametric coordinates.

mtllib leftlowleg.mtl
g default
v 1.100784 -2.840772 0.063859
v 1.134076 -2.073764 0.125220
v 1.121226 -2.082448 0.281435
v 1.077482 -2.848263 0.183241
v 1.049602 -2.093997 0.420646
v 1.009420 -2.858189 0.294717
v 0.930108 -2.106653 0.521664
v 0.906959 -2.869041 0.381315
v 0.780934 -2.118488 0.569105
v 0.785697 -2.879164 0.429853
v 0.624792 -2.127701 0.555750
v 0.664096 -2.887017 0.432939
v 0.487609 -2.132838 0.485339
v 0.560669 -2.891407 0.390105
v 0.386351 -2.133204 0.365386
v 0.491161 -2.891663 0.307871
v 0.336248 -2.128763 0.214291
v 0.466153 -2.887750 0.198757
v 0.349097 -2.120078 0.058076
v 0.489454 -2.880259 0.079375
v 0.420722 -2.108528 -0.081137
v 0.557517 -2.870332 -0.032100
v 0.540217 -2.095873 -0.182154
v 0.659978 -2.859481 -0.118699
v 0.689391 -2.084038 -0.229594
v 0.781240 -2.849359 -0.167237
v 0.845533 -2.074826 -0.216238
v 0.902840 -2.841503 -0.170322
v 0.984872 -2.069637 -0.144119
v 1.006268 -2.837114 -0.127489
v 1.086195 -2.069264 -0.024214
v 1.075776 -2.836857 -0.045255
v 0.570387 -1.771877 0.145201
v 0.565611 -1.775104 0.203256
v 0.583406 -1.776776 0.258793
v 0.621062 -1.776637 0.303356
v 0.672847 -1.774709 0.330159
v 0.730876 -1.771286 0.335122
v 0.786316 -1.766887 0.317490
v 0.830726 -1.762184 0.279949
v 0.857345 -1.757891 0.228210
v 0.862121 -1.754664 0.170154
v 0.844325 -1.752992 0.114618
v 0.806669 -1.753130 0.070055
v 0.754884 -1.755058 0.043252
v 0.696855 -1.758482 0.038289
v 0.641416 -1.762880 0.055921
v 0.597005 -1.767583 0.093462
v 1.111786 -1.928778 0.134029
v 1.099357 -1.937180 0.285132
v 1.065471 -1.924427 -0.010516
v 0.967464 -1.924788 -0.126497
v 0.832685 -1.929805 -0.196257
v 0.681653 -1.938717 -0.209175
v 0.537360 -1.950165 -0.163286
v 0.421775 -1.962406 -0.065576
v 0.352495 -1.973576 0.069081
v 0.340066 -1.981978 0.220184
v 0.377305 -1.987318 0.372941
v 0.478375 -1.986952 0.492687
v 0.619167 -1.980950 0.550470
v 0.770199 -1.972039 0.563388
v 0.914492 -1.960592 0.517499
v 1.030077 -1.948350 0.419788
v 0.858293 -1.842294 0.435310
v 0.751339 -1.850779 0.469324
v 0.943969 -1.833221 0.362884
v 0.995321 -1.824939 0.263071
v 1.004534 -1.818712 0.151069
v 0.970204 -1.815487 0.043927
v 0.897558 -1.815754 -0.042042
v 0.797655 -1.819474 -0.093750
v 0.685705 -1.826079 -0.103325
v 0.578750 -1.834564 -0.069312
v 0.493075 -1.843638 0.003116
v 0.441722 -1.851918 0.102928
v 0.432509 -1.858146 0.214931
v 0.384043 -1.902884 0.366993
v 0.485102 -1.902527 0.486719
v 0.639389 -1.857384 0.459749
v 0.507322 -1.827416 0.433629
v 0.437965 -1.827668 0.351484
vn 0.996491 -0.038647 -0.074248
vn 0.997358 -0.004794 -0.072490
vn 0.949315 -0.053792 0.309689
vn 0.947446 -0.091828 0.306453
vn 0.773394 -0.098481 0.626230
vn 0.771565 -0.139441 0.620680
vn 0.502651 -0.127178 0.855083
vn 0.502531 -0.167963 0.848087
vn 0.159155 -0.137539 0.977626
vn 0.160951 -0.175198 0.971288
vn -0.222779 -0.138478 0.964984
vn -0.224099 -0.168411 0.959905
vn -0.598305 -0.140820 0.788797
vn -0.600040 -0.159711 0.783865
vn -0.875773 -0.140893 0.461704
vn -0.872042 -0.159835 0.462596
vn -0.987858 -0.140650 0.065993
vn -0.983035 -0.170481 0.067672
vn -0.936951 -0.141507 -0.319529
vn -0.930291 -0.179138 -0.320106
vn -0.758813 -0.131791 -0.637835
vn -0.751811 -0.172545 -0.636402
vn -0.488066 -0.103143 -0.866691
vn -0.482773 -0.144082 -0.863812
vn -0.146778 -0.057887 -0.987474
vn -0.143781 -0.095917 -0.984950
vn 0.237833 -0.007661 -0.971276
vn 0.239524 -0.041515 -0.970003
vn 0.609049 0.027172 -0.792667
vn 0.609945 -0.003856 -0.792434
vn 0.883028 0.028214 -0.468471
vn 0.883044 -0.002814 -0.469281
vn -0.152892 0.987953 0.023952
vn -0.156145 0.987231 0.031530
vn -0.127396 0.990628 0.049250
vn -0.072475 0.990939 0.113082
vn -0.059572 0.987676 0.144731
vn -0.052147 0.988323 0.143172
vn -0.017347 0.991084 0.132103
vn 0.010533 0.994036 0.108539
vn 0.027240 0.996731 0.076060
vn 0.030240 0.998757 0.039614
vn 0.019068 0.999807 0.004754
vn -0.004569 0.999720 -0.023221
vn -0.037078 0.998510 -0.040047
vn -0.073504 0.996361 -0.043162
vn -0.108304 0.993600 -0.032093
vn -0.136186 0.990647 -0.008528
vn 0.981861 0.157376 -0.105746
vn 0.950052 0.135872 0.280962
vn 0.863330 0.168515 -0.475672
vn 0.612504 0.167589 -0.772498
vn 0.267567 0.154743 -0.951032
vn -0.118958 0.131941 -0.984094
vn -0.488238 0.102647 -0.866653
vn -0.784052 0.071316 -0.616584
vn -0.961359 0.042725 -0.271962
vn -0.994923 -0.000597 0.100641
vn -0.859090 -0.019528 0.511451
vn -0.645972 -0.018544 0.763136
vn -0.254944 0.002711 0.966952
vn 0.107653 0.046660 0.993093
vn 0.476935 0.075957 0.875651
vn 0.772746 0.107281 0.625584
vn 0.045231 0.616682 0.785912
vn 0.326579 0.639003 0.696435
vn 0.276504 0.733131 0.621341
vn 0.028974 0.713493 0.700063
vn 0.551956 0.662873 0.505909
vn 0.474793 0.754130 0.453717
vn 0.687046 0.684654 0.243345
vn 0.593645 0.773295 0.222710
vn 0.711281 0.701034 -0.051285
vn 0.614968 0.787706 -0.036509
vn 0.620974 0.709518 -0.333129
vn 0.535515 0.795171 -0.284476
vn 0.429873 0.708815 -0.559277
vn 0.367382 0.794553 -0.483442
vn 0.167065 0.699033 -0.695301
vn 0.136162 0.785944 -0.603118
vn -0.127429 0.681654 -0.720493
vn -0.122934 0.770657 -0.625281
vn -0.408779 0.659332 -0.631016
vn -0.370467 0.751017 -0.546560
vn -0.634154 0.635465 -0.440491
vn -0.568756 0.730019 -0.378931
vn -0.769244 0.613683 -0.177924
vn -0.687607 0.710855 -0.147923
vn -0.798635 0.598764 0.060521
vn -0.671435 0.740952 -0.012838
vn -0.955930 0.055983 -0.288209
vn -0.955930 0.055983 -0.288209
vn -0.955930 0.055983 -0.288209
vn -0.727021 0.309806 0.612749
vn -0.726339 0.312548 0.612165
vn 0.155615 0.057311 0.986154
vn 0.155615 0.057311 0.986154
vn 0.155615 0.057311 0.986154
vn -0.188588 0.601062 0.776633
vn -0.096388 0.744206 0.660959
vn -0.632313 0.563081 0.532090
vn -0.632313 0.563081 0.532090
vn -0.028461 0.582561 0.812288
vn -0.103401 0.896862 0.430054
vn -0.818206 0.567205 -0.093906
vn -0.448071 0.893412 0.032353
vn -0.779068 0.590521 0.210564
vn -0.327116 0.593455 0.735395
s 1
g al:lowlegL
usemtl initialShadingGroup
f 1//1 2//2 3//3 4//4
f 4//4 3//3 5//5 6//6
f 6//6 5//5 7//7 8//8
f 8//8 7//7 9//9 10//10
f 10//10 9//9 11//11 12//12
f 12//12 11//11 13//13 14//14
f 14//14 13//13 15//15 16//16
f 16//16 15//15 17//17 18//18
f 18//18 17//17 19//19 20//20
f 20//20 19//19 21//21 22//22
f 22//22 21//21 23//23 24//24
f 24//24 23//23 25//25 26//26
f 26//26 25//25 27//27 28//28
f 28//28 27//27 29//29 30//30
f 30//30 29//29 31//31 32//32
f 32//32 31//31 2//2 1//1
s 2
f 33//33 34//34 35//35 36//36 37//37 38//38 39//39 40//40 41//41 42//42 43//43 44//44 45//45 46//46 47//47 48//48
s 1
f 3//3 2//2 49//49 50//50
f 2//2 31//31 51//51 49//49
f 31//31 29//29 52//52 51//51
f 29//29 27//27 53//53 52//52
f 27//27 25//25 54//54 53//53
f 25//25 23//23 55//55 54//54
f 23//23 21//21 56//56 55//55
f 21//21 19//19 57//57 56//56
f 19//19 17//17 58//58 57//57
f 17//17 15//15 59//59 58//58
f 15//15 13//13 60//60 59//59
f 13//13 11//11 61//61 60//60
f 11//11 9//9 62//62 61//61
f 9//9 7//7 63//63 62//62
f 7//7 5//5 64//64 63//63
f 5//5 3//3 50//50 64//64
s 2
f 62//65 63//66 65//67 66//68
f 63//66 64//69 67//70 65//67
f 64//69 50//71 68//72 67//70
f 50//71 49//73 69//74 68//72
f 49//73 51//75 70//76 69//74
f 51//75 52//77 71//78 70//76
f 52//77 53//79 72//80 71//78
f 53//79 54//81 73//82 72//80
f 54//81 55//83 74//84 73//82
f 55//83 56//85 75//86 74//84
f 56//85 57//87 76//88 75//86
f 57//87 58//89 77//90 76//88
s off
f 77//91 59//92 78//93
s 1
f 59//59 60//60 79//94 78//95
s off
f 60//96 80//97 79//98
s 2
f 61//99 62//65 66//68 80//100
s 1
f 78//95 79//94 81//101 82//102
s 2
f 79//103 80//100 81//104
f 80//100 66//68 38//38 37//37
f 66//68 65//67 39//39 38//38
f 65//67 67//70 40//40 39//39
f 67//70 68//72 41//41 40//40
f 68//72 69//74 42//42 41//41
f 69//74 70//76 43//43 42//42
f 70//76 71//78 44//44 43//43
f 71//78 72//80 45//45 44//44
f 72//80 73//82 46//46 45//45
f 73//82 74//84 47//47 46//46
f 74//84 75//86 48//48 47//47
f 75//86 76//88 33//33 48//48
f 76//88 77//90 34//34 33//33
f 77//90 78//105 82//106
f 81//104 80//100 37//37 36//36
f 82//106 81//104 36//36 35//35
f 77//90 82//106 35//35 34//34
f 59//107 77//90 58//89
f 80//100 60//108 61//99
